<mxfile host="Electron" modified="2024-03-22T01:38:30.995Z" agent="Mozilla/5.0 (Windows NT 10.0; Win64; x64) AppleWebKit/537.36 (KHTML, like Gecko) draw.io/24.0.4 Chrome/120.0.6099.109 Electron/28.1.0 Safari/537.36" etag="KKyZlHWM3EID-gbcOQKy" version="24.0.4" type="device" pages="2">
  <diagram id="3228e29e-7158-1315-38df-8450db1d8a1d" name="Page-1">
    <mxGraphModel dx="1500" dy="899" grid="1" gridSize="10" guides="1" tooltips="1" connect="1" arrows="1" fold="1" page="1" pageScale="1" pageWidth="1169" pageHeight="827" background="none" math="0" shadow="0">
      <root>
        <mxCell id="0" />
        <mxCell id="1" parent="0" />
        <mxCell id="21532" value="" style="ellipse;fillColor=#12AAB5;opacity=60;strokeColor=none;html=1;fontColor=#FFFFFF;" parent="1" vertex="1">
          <mxGeometry x="179.5" y="18.5" width="500" height="500" as="geometry" />
        </mxCell>
        <mxCell id="21533" value="" style="ellipse;fillColor=#e85642;opacity=60;strokeColor=none;html=1;fontColor=#FFFFFF;" parent="1" vertex="1">
          <mxGeometry x="489.5" y="18.5" width="520.5" height="511.5" as="geometry" />
        </mxCell>
        <mxCell id="21534" value="Servlet" style="text;fontSize=24;align=center;verticalAlign=middle;html=1;fillColor=#ffe6cc;strokeColor=#d79b00;" parent="1" vertex="1">
          <mxGeometry x="270" y="130" width="130" height="51.5" as="geometry" />
        </mxCell>
        <mxCell id="21536" value="Tradition" style="text;fontSize=24;align=center;verticalAlign=middle;html=1;fontColor=#FFFFFF;" parent="1" vertex="1">
          <mxGeometry x="499.5" y="558.5" width="190" height="70" as="geometry" />
        </mxCell>
        <mxCell id="7-HaCiihB34XGL5fVL0q-21540" value="JSP" style="text;fontSize=24;align=center;verticalAlign=middle;html=1;fillColor=#ffe6cc;strokeColor=#d79b00;" vertex="1" parent="1">
          <mxGeometry x="260" y="220" width="130" height="51.5" as="geometry" />
        </mxCell>
        <mxCell id="7-HaCiihB34XGL5fVL0q-21541" value="Filter" style="text;fontSize=24;align=center;verticalAlign=middle;html=1;fillColor=#ffe6cc;strokeColor=#d79b00;" vertex="1" parent="1">
          <mxGeometry x="280" y="310" width="130" height="51.5" as="geometry" />
        </mxCell>
        <mxCell id="7-HaCiihB34XGL5fVL0q-21542" value="Listener" style="text;fontSize=24;align=center;verticalAlign=middle;html=1;fillColor=#ffe6cc;strokeColor=#d79b00;" vertex="1" parent="1">
          <mxGeometry x="330" y="407" width="130" height="51.5" as="geometry" />
        </mxCell>
        <mxCell id="7-HaCiihB34XGL5fVL0q-21543" value="传统的MVC" style="text;fontSize=24;align=center;verticalAlign=middle;html=1;fontColor=#FFFFFF;" vertex="1" parent="1">
          <mxGeometry x="330" y="40" width="190" height="70" as="geometry" />
        </mxCell>
        <mxCell id="7-HaCiihB34XGL5fVL0q-21544" value="SpringMVC" style="text;fontSize=24;align=center;verticalAlign=middle;html=1;fontColor=#FFFFFF;" vertex="1" parent="1">
          <mxGeometry x="660" y="50" width="190" height="70" as="geometry" />
        </mxCell>
        <mxCell id="7-HaCiihB34XGL5fVL0q-21545" value="HandlerMapping" style="text;fontSize=24;align=center;verticalAlign=middle;html=1;fillColor=#d5e8d4;strokeColor=#82b366;" vertex="1" parent="1">
          <mxGeometry x="750" y="131" width="190" height="51.5" as="geometry" />
        </mxCell>
        <mxCell id="7-HaCiihB34XGL5fVL0q-21546" value="Handler" style="text;fontSize=24;align=center;verticalAlign=middle;html=1;fillColor=#d5e8d4;strokeColor=#82b366;" vertex="1" parent="1">
          <mxGeometry x="730" y="201" width="190" height="51.5" as="geometry" />
        </mxCell>
        <mxCell id="7-HaCiihB34XGL5fVL0q-21547" value="Interceptor" style="text;fontSize=24;align=center;verticalAlign=middle;html=1;fillColor=#d5e8d4;strokeColor=#82b366;" vertex="1" parent="1">
          <mxGeometry x="720" y="271" width="190" height="51.5" as="geometry" />
        </mxCell>
        <mxCell id="7-HaCiihB34XGL5fVL0q-21548" value="HandlerExecutionChain" style="text;fontSize=24;align=center;verticalAlign=middle;html=1;fillColor=#d5e8d4;strokeColor=#82b366;" vertex="1" parent="1">
          <mxGeometry x="680" y="339.5" width="260" height="51.5" as="geometry" />
        </mxCell>
        <mxCell id="7-HaCiihB34XGL5fVL0q-21549" value="ViewResolver" style="text;fontSize=24;align=center;verticalAlign=middle;html=1;fillColor=#d5e8d4;strokeColor=#82b366;" vertex="1" parent="1">
          <mxGeometry x="640" y="402" width="260" height="56" as="geometry" />
        </mxCell>
        <mxCell id="7-HaCiihB34XGL5fVL0q-21550" value="View" style="text;fontSize=24;align=center;verticalAlign=middle;html=1;fillColor=#d5e8d4;strokeColor=#82b366;" vertex="1" parent="1">
          <mxGeometry x="700" y="461" width="110" height="50" as="geometry" />
        </mxCell>
        <mxCell id="7-HaCiihB34XGL5fVL0q-21551" value="DispatchServlet" style="text;fontSize=24;align=center;verticalAlign=middle;html=1;fillColor=#6a00ff;strokeColor=#3700CC;fontColor=#ffffff;" vertex="1" parent="1">
          <mxGeometry x="499.5" y="242.75" width="170.5" height="51.5" as="geometry" />
        </mxCell>
      </root>
    </mxGraphModel>
  </diagram>
  <diagram id="3s8ViTIQCgOrYWG10YZX" name="理想的MVC">
    <mxGraphModel dx="1050" dy="629" grid="1" gridSize="10" guides="1" tooltips="1" connect="1" arrows="1" fold="1" page="1" pageScale="1" pageWidth="827" pageHeight="1169" math="0" shadow="0">
      <root>
        <mxCell id="0" />
        <mxCell id="1" parent="0" />
        <mxCell id="Cz5BFJqvExEph-cFm1eP-8" style="edgeStyle=orthogonalEdgeStyle;rounded=0;orthogonalLoop=1;jettySize=auto;html=1;exitX=0.5;exitY=1;exitDx=0;exitDy=0;entryX=0;entryY=0.5;entryDx=0;entryDy=0;" edge="1" parent="1" source="Cz5BFJqvExEph-cFm1eP-2" target="Cz5BFJqvExEph-cFm1eP-3">
          <mxGeometry relative="1" as="geometry" />
        </mxCell>
        <mxCell id="Cz5BFJqvExEph-cFm1eP-2" value="Controller" style="rounded=0;whiteSpace=wrap;html=1;" vertex="1" parent="1">
          <mxGeometry x="170" y="210" width="100" height="50" as="geometry" />
        </mxCell>
        <mxCell id="Cz5BFJqvExEph-cFm1eP-7" style="edgeStyle=orthogonalEdgeStyle;rounded=0;orthogonalLoop=1;jettySize=auto;html=1;exitX=1;exitY=0.5;exitDx=0;exitDy=0;entryX=0.5;entryY=1;entryDx=0;entryDy=0;" edge="1" parent="1" source="Cz5BFJqvExEph-cFm1eP-3" target="Cz5BFJqvExEph-cFm1eP-4">
          <mxGeometry relative="1" as="geometry" />
        </mxCell>
        <mxCell id="Cz5BFJqvExEph-cFm1eP-3" value="Model" style="rounded=0;whiteSpace=wrap;html=1;" vertex="1" parent="1">
          <mxGeometry x="310" y="290" width="100" height="50" as="geometry" />
        </mxCell>
        <mxCell id="Cz5BFJqvExEph-cFm1eP-13" value="响应" style="edgeStyle=orthogonalEdgeStyle;rounded=0;orthogonalLoop=1;jettySize=auto;html=1;" edge="1" parent="1" source="Cz5BFJqvExEph-cFm1eP-4" target="Cz5BFJqvExEph-cFm1eP-10">
          <mxGeometry relative="1" as="geometry" />
        </mxCell>
        <mxCell id="Cz5BFJqvExEph-cFm1eP-4" value="View" style="rounded=0;whiteSpace=wrap;html=1;" vertex="1" parent="1">
          <mxGeometry x="450" y="210" width="100" height="50" as="geometry" />
        </mxCell>
        <mxCell id="Cz5BFJqvExEph-cFm1eP-5" value="数据库" style="shape=cylinder3;whiteSpace=wrap;html=1;boundedLbl=1;backgroundOutline=1;size=15;" vertex="1" parent="1">
          <mxGeometry x="330" y="400" width="60" height="80" as="geometry" />
        </mxCell>
        <mxCell id="Cz5BFJqvExEph-cFm1eP-6" style="edgeStyle=orthogonalEdgeStyle;rounded=0;orthogonalLoop=1;jettySize=auto;html=1;exitX=0.5;exitY=1;exitDx=0;exitDy=0;entryX=0.5;entryY=0;entryDx=0;entryDy=0;entryPerimeter=0;startArrow=classic;startFill=1;" edge="1" parent="1" source="Cz5BFJqvExEph-cFm1eP-3" target="Cz5BFJqvExEph-cFm1eP-5">
          <mxGeometry relative="1" as="geometry" />
        </mxCell>
        <mxCell id="Cz5BFJqvExEph-cFm1eP-12" value="请求" style="edgeStyle=orthogonalEdgeStyle;rounded=0;orthogonalLoop=1;jettySize=auto;html=1;" edge="1" parent="1" source="Cz5BFJqvExEph-cFm1eP-9" target="Cz5BFJqvExEph-cFm1eP-2">
          <mxGeometry relative="1" as="geometry" />
        </mxCell>
        <mxCell id="Cz5BFJqvExEph-cFm1eP-9" value="用户" style="shape=umlActor;verticalLabelPosition=bottom;verticalAlign=top;html=1;outlineConnect=0;" vertex="1" parent="1">
          <mxGeometry x="205" y="80" width="30" height="60" as="geometry" />
        </mxCell>
        <mxCell id="Cz5BFJqvExEph-cFm1eP-10" value="用户" style="shape=umlActor;verticalLabelPosition=bottom;verticalAlign=top;html=1;outlineConnect=0;" vertex="1" parent="1">
          <mxGeometry x="485" y="80" width="30" height="60" as="geometry" />
        </mxCell>
        <mxCell id="Cz5BFJqvExEph-cFm1eP-14" value="" style="shape=flexArrow;endArrow=classic;html=1;rounded=0;" edge="1" parent="1">
          <mxGeometry width="50" height="50" relative="1" as="geometry">
            <mxPoint x="440" y="120" as="sourcePoint" />
            <mxPoint x="280" y="120" as="targetPoint" />
          </mxGeometry>
        </mxCell>
        <mxCell id="Cz5BFJqvExEph-cFm1eP-15" value="下一次用户操作" style="edgeLabel;html=1;align=center;verticalAlign=middle;resizable=0;points=[];" vertex="1" connectable="0" parent="Cz5BFJqvExEph-cFm1eP-14">
          <mxGeometry x="0.015" y="-1" relative="1" as="geometry">
            <mxPoint as="offset" />
          </mxGeometry>
        </mxCell>
      </root>
    </mxGraphModel>
  </diagram>
</mxfile>
